<svg width="191" height="44" viewBox="0 0 191 44" fill="none" xmlns="http://www.w3.org/2000/svg">
<path d="M3.76 39V11H8.04L20.28 31.44H18.04L30.08 11H34.36L34.4 39H29.48L29.44 18.72H30.48L20.24 35.8H17.92L7.52 18.72H8.72V39H3.76ZM46.6031 32.4L46.3231 26.24L61.0031 11H66.8431L54.6431 23.96L51.7631 27.12L46.6031 32.4ZM41.9631 39V11H47.1631V39H41.9631ZM61.4831 39L50.7631 26.24L54.2031 22.44L67.5631 39H61.4831ZM79.1978 39.4C77.0111 39.4 74.9178 39.0933 72.9178 38.48C70.9178 37.84 69.3311 37.0267 68.1578 36.04L69.9578 32C71.0778 32.88 72.4645 33.6133 74.1178 34.2C75.7711 34.7867 77.4645 35.08 79.1978 35.08C80.6645 35.08 81.8511 34.92 82.7578 34.6C83.6645 34.28 84.3311 33.8533 84.7578 33.32C85.1845 32.76 85.3978 32.1333 85.3978 31.44C85.3978 30.5867 85.0911 29.9067 84.4778 29.4C83.8645 28.8667 83.0645 28.4533 82.0778 28.16C81.1178 27.84 80.0378 27.5467 78.8378 27.28C77.6645 27.0133 76.4778 26.7067 75.2778 26.36C74.1045 25.9867 73.0245 25.52 72.0378 24.96C71.0778 24.3733 70.2911 23.6 69.6778 22.64C69.0645 21.68 68.7578 20.4533 68.7578 18.96C68.7578 17.44 69.1578 16.0533 69.9578 14.8C70.7845 13.52 72.0245 12.5067 73.6778 11.76C75.3578 10.9867 77.4778 10.6 80.0378 10.6C81.7178 10.6 83.3845 10.8133 85.0378 11.24C86.6911 11.6667 88.1311 12.28 89.3578 13.08L87.7178 17.12C86.4645 16.3733 85.1711 15.8267 83.8378 15.48C82.5045 15.1067 81.2245 14.92 79.9978 14.92C78.5578 14.92 77.3845 15.0933 76.4778 15.44C75.5978 15.7867 74.9445 16.24 74.5178 16.8C74.1178 17.36 73.9178 18 73.9178 18.72C73.9178 19.5733 74.2111 20.2667 74.7978 20.8C75.4111 21.3067 76.1978 21.7067 77.1578 22C78.1445 22.2933 79.2378 22.5867 80.4378 22.88C81.6378 23.1467 82.8245 23.4533 83.9978 23.8C85.1978 24.1467 86.2778 24.6 87.2378 25.16C88.2245 25.72 89.0111 26.48 89.5978 27.44C90.2111 28.4 90.5178 29.6133 90.5178 31.08C90.5178 32.5733 90.1045 33.96 89.2778 35.24C88.4778 36.4933 87.2378 37.5067 85.5578 38.28C83.8778 39.0267 81.7578 39.4 79.1978 39.4Z" fill="white"/>
<path d="M106.12 36.1C105.08 36.1 104.093 35.9267 103.16 35.58C102.24 35.22 101.527 34.76 101.02 34.2L101.48 33.44C101.96 33.9333 102.613 34.3533 103.44 34.7C104.28 35.0333 105.167 35.2 106.1 35.2C107.033 35.2 107.793 35.08 108.38 34.84C108.98 34.5867 109.42 34.2533 109.7 33.84C109.993 33.4267 110.14 32.9667 110.14 32.46C110.14 31.86 109.98 31.38 109.66 31.02C109.34 30.66 108.92 30.3733 108.4 30.16C107.88 29.9467 107.313 29.7667 106.7 29.62C106.087 29.4733 105.467 29.32 104.84 29.16C104.213 28.9867 103.64 28.7667 103.12 28.5C102.6 28.2333 102.18 27.8733 101.86 27.42C101.553 26.9533 101.4 26.3533 101.4 25.62C101.4 24.9533 101.573 24.34 101.92 23.78C102.267 23.22 102.807 22.7667 103.54 22.42C104.273 22.0733 105.213 21.9 106.36 21.9C107.133 21.9 107.893 22.0133 108.64 22.24C109.4 22.4667 110.047 22.7733 110.58 23.16L110.2 23.98C109.613 23.58 108.98 23.2867 108.3 23.1C107.633 22.9 106.987 22.8 106.36 22.8C105.467 22.8 104.727 22.9267 104.14 23.18C103.553 23.4333 103.12 23.7733 102.84 24.2C102.56 24.6133 102.42 25.08 102.42 25.6C102.42 26.2 102.573 26.68 102.88 27.04C103.2 27.4 103.62 27.6867 104.14 27.9C104.66 28.1133 105.233 28.2933 105.86 28.44C106.487 28.5867 107.107 28.7467 107.72 28.92C108.333 29.08 108.9 29.2933 109.42 29.56C109.94 29.8267 110.36 30.1867 110.68 30.64C111 31.0933 111.16 31.68 111.16 32.4C111.16 33.0533 110.98 33.6667 110.62 34.24C110.26 34.8 109.707 35.2533 108.96 35.6C108.227 35.9333 107.28 36.1 106.12 36.1ZM114.308 36V25.56H115.308V36H114.308ZM114.808 23.02C114.581 23.02 114.388 22.94 114.228 22.78C114.068 22.62 113.988 22.4333 113.988 22.22C113.988 21.9933 114.068 21.8 114.228 21.64C114.388 21.48 114.581 21.4 114.808 21.4C115.048 21.4 115.241 21.48 115.388 21.64C115.548 21.7867 115.628 21.9733 115.628 22.2C115.628 22.4267 115.548 22.62 115.388 22.78C115.241 22.94 115.048 23.02 114.808 23.02ZM122.162 36.08C121.296 36.08 120.482 35.9533 119.722 35.7C118.976 35.4467 118.396 35.1267 117.982 34.74L118.442 33.94C118.842 34.2867 119.376 34.5867 120.042 34.84C120.709 35.08 121.429 35.2 122.202 35.2C123.296 35.2 124.082 35.02 124.562 34.66C125.042 34.3 125.282 33.8267 125.282 33.24C125.282 32.8133 125.156 32.48 124.902 32.24C124.662 31.9867 124.336 31.7933 123.922 31.66C123.509 31.5267 123.056 31.42 122.562 31.34C122.069 31.2467 121.576 31.1467 121.082 31.04C120.589 30.9333 120.136 30.78 119.722 30.58C119.309 30.38 118.976 30.1067 118.722 29.76C118.482 29.4 118.362 28.9267 118.362 28.34C118.362 27.8067 118.509 27.3267 118.802 26.9C119.096 26.4733 119.536 26.1333 120.122 25.88C120.709 25.6133 121.442 25.48 122.322 25.48C122.976 25.48 123.629 25.5733 124.282 25.76C124.949 25.9467 125.489 26.1933 125.902 26.5L125.442 27.3C125.002 26.9667 124.509 26.7267 123.962 26.58C123.416 26.4333 122.862 26.36 122.302 26.36C121.289 26.36 120.542 26.5467 120.062 26.92C119.596 27.2933 119.362 27.76 119.362 28.32C119.362 28.76 119.482 29.1133 119.722 29.38C119.976 29.6333 120.309 29.8333 120.722 29.98C121.136 30.1133 121.589 30.2267 122.082 30.32C122.576 30.4 123.069 30.4933 123.562 30.6C124.056 30.7067 124.509 30.86 124.922 31.06C125.336 31.2467 125.662 31.5133 125.902 31.86C126.156 32.1933 126.282 32.6467 126.282 33.22C126.282 33.7933 126.122 34.2933 125.802 34.72C125.496 35.1467 125.036 35.48 124.422 35.72C123.809 35.96 123.056 36.08 122.162 36.08ZM132.113 36.08C131.193 36.08 130.486 35.8267 129.993 35.32C129.513 34.8133 129.273 34.12 129.273 33.24V23.28H130.273V33.14C130.273 33.8067 130.44 34.32 130.773 34.68C131.106 35.04 131.586 35.22 132.213 35.22C132.866 35.22 133.406 35.0267 133.833 34.64L134.253 35.34C133.986 35.5933 133.66 35.78 133.273 35.9C132.9 36.02 132.513 36.08 132.113 36.08ZM127.353 26.42V25.56H133.593V26.42H127.353ZM140.911 36.08C139.857 36.08 138.924 35.8533 138.111 35.4C137.311 34.9467 136.677 34.32 136.211 33.52C135.757 32.72 135.531 31.8067 135.531 30.78C135.531 29.74 135.744 28.8267 136.171 28.04C136.611 27.24 137.211 26.6133 137.971 26.16C138.731 25.7067 139.584 25.48 140.531 25.48C141.477 25.48 142.324 25.7 143.071 26.14C143.831 26.58 144.424 27.2 144.851 28C145.291 28.7867 145.511 29.7 145.511 30.74C145.511 30.78 145.504 30.8267 145.491 30.88C145.491 30.92 145.491 30.9667 145.491 31.02H136.271V30.24H144.951L144.551 30.62C144.564 29.8067 144.391 29.08 144.031 28.44C143.684 27.7867 143.211 27.28 142.611 26.92C142.011 26.5467 141.317 26.36 140.531 26.36C139.757 26.36 139.064 26.5467 138.451 26.92C137.851 27.28 137.377 27.7867 137.031 28.44C136.684 29.08 136.511 29.8133 136.511 30.64V30.82C136.511 31.6733 136.697 32.4333 137.071 33.1C137.457 33.7533 137.984 34.2667 138.651 34.64C139.317 35 140.077 35.18 140.931 35.18C141.597 35.18 142.217 35.06 142.791 34.82C143.377 34.58 143.871 34.2133 144.271 33.72L144.851 34.38C144.397 34.94 143.824 35.3667 143.131 35.66C142.451 35.94 141.711 36.08 140.911 36.08ZM161.604 25.48C162.444 25.48 163.171 25.6467 163.784 25.98C164.411 26.3 164.898 26.7933 165.244 27.46C165.591 28.1133 165.764 28.9267 165.764 29.9V36H164.764V29.98C164.764 28.8067 164.478 27.9133 163.904 27.3C163.331 26.6867 162.531 26.38 161.504 26.38C160.718 26.38 160.038 26.5467 159.464 26.88C158.891 27.2133 158.451 27.68 158.144 28.28C157.838 28.88 157.684 29.6 157.684 30.44V36H156.684V29.98C156.684 28.8067 156.398 27.9133 155.824 27.3C155.251 26.6867 154.451 26.38 153.424 26.38C152.638 26.38 151.958 26.5467 151.384 26.88C150.811 27.2133 150.371 27.68 150.064 28.28C149.758 28.88 149.604 29.6 149.604 30.44V36H148.604V25.56H149.564V28.44L149.424 28.12C149.731 27.3067 150.244 26.6667 150.964 26.2C151.684 25.72 152.551 25.48 153.564 25.48C154.604 25.48 155.478 25.7467 156.184 26.28C156.904 26.8 157.358 27.58 157.544 28.62L157.204 28.48C157.484 27.5867 158.011 26.8667 158.784 26.32C159.558 25.76 160.498 25.48 161.604 25.48ZM176.473 36V33.62L176.433 33.26V29.34C176.433 28.3667 176.167 27.6267 175.633 27.12C175.113 26.6133 174.347 26.36 173.333 26.36C172.613 26.36 171.94 26.4867 171.313 26.74C170.7 26.98 170.173 27.2933 169.733 27.68L169.233 26.96C169.753 26.4933 170.38 26.1333 171.113 25.88C171.847 25.6133 172.613 25.48 173.413 25.48C174.707 25.48 175.7 25.8067 176.393 26.46C177.087 27.1133 177.433 28.0867 177.433 29.38V36H176.473ZM172.713 36.08C171.94 36.08 171.267 35.96 170.693 35.72C170.133 35.4667 169.7 35.1133 169.393 34.66C169.1 34.2067 168.953 33.6867 168.953 33.1C168.953 32.5667 169.073 32.0867 169.313 31.66C169.567 31.22 169.98 30.8667 170.553 30.6C171.127 30.32 171.893 30.18 172.853 30.18H176.693V30.96H172.873C171.793 30.96 171.033 31.16 170.593 31.56C170.167 31.96 169.953 32.46 169.953 33.06C169.953 33.7267 170.207 34.26 170.713 34.66C171.22 35.06 171.933 35.26 172.853 35.26C173.733 35.26 174.473 35.06 175.073 34.66C175.687 34.26 176.14 33.68 176.433 32.92L176.713 33.6C176.433 34.36 175.953 34.9667 175.273 35.42C174.607 35.86 173.753 36.08 172.713 36.08ZM184.194 36.08C183.327 36.08 182.514 35.9533 181.754 35.7C181.007 35.4467 180.427 35.1267 180.014 34.74L180.474 33.94C180.874 34.2867 181.407 34.5867 182.074 34.84C182.74 35.08 183.46 35.2 184.234 35.2C185.327 35.2 186.114 35.02 186.594 34.66C187.074 34.3 187.314 33.8267 187.314 33.24C187.314 32.8133 187.187 32.48 186.934 32.24C186.694 31.9867 186.367 31.7933 185.954 31.66C185.54 31.5267 185.087 31.42 184.594 31.34C184.1 31.2467 183.607 31.1467 183.114 31.04C182.62 30.9333 182.167 30.78 181.754 30.58C181.34 30.38 181.007 30.1067 180.754 29.76C180.514 29.4 180.394 28.9267 180.394 28.34C180.394 27.8067 180.54 27.3267 180.834 26.9C181.127 26.4733 181.567 26.1333 182.154 25.88C182.74 25.6133 183.474 25.48 184.354 25.48C185.007 25.48 185.66 25.5733 186.314 25.76C186.98 25.9467 187.52 26.1933 187.934 26.5L187.474 27.3C187.034 26.9667 186.54 26.7267 185.994 26.58C185.447 26.4333 184.894 26.36 184.334 26.36C183.32 26.36 182.574 26.5467 182.094 26.92C181.627 27.2933 181.394 27.76 181.394 28.32C181.394 28.76 181.514 29.1133 181.754 29.38C182.007 29.6333 182.34 29.8333 182.754 29.98C183.167 30.1133 183.62 30.2267 184.114 30.32C184.607 30.4 185.1 30.4933 185.594 30.6C186.087 30.7067 186.54 30.86 186.954 31.06C187.367 31.2467 187.694 31.5133 187.934 31.86C188.187 32.1933 188.314 32.6467 188.314 33.22C188.314 33.7933 188.154 34.2933 187.834 34.72C187.527 35.1467 187.067 35.48 186.454 35.72C185.84 35.96 185.087 36.08 184.194 36.08Z" fill="white"/>
</svg>
